<svg width="48" height="48" viewBox="0 0 48 48" fill="none" xmlns="http://www.w3.org/2000/svg">
<g clip-path="url(#clip0_1780_41707)">
<path d="M47.5802 17.34C47.0033 14.5471 45.8523 11.9045 44.2002 9.58C40.7402 4.44 38.9602 2.92 33.5802 1.74C31.893 1.36104 30.1826 1.09379 28.4602 0.94C26.7305 0.780417 24.9898 0.780417 23.2602 0.94C21.811 1.09401 20.3743 1.34794 18.9602 1.7C18 1.93578 17.063 2.25706 16.1602 2.66C14.4774 3.39845 12.8585 4.27477 11.3202 5.28C9.74012 6.29266 8.30097 7.50988 7.04017 8.9C5.59401 10.5092 4.32039 12.2654 3.24017 14.14C2.17618 16.024 1.36902 18.0419 0.840169 20.14C0.517664 21.4079 0.290364 22.6982 0.160169 24C-0.0189752 25.3253 -0.0725464 26.6646 0.000169065 28C0.205165 30.0852 0.780867 32.1171 1.70017 34C2.56571 35.8873 3.66063 37.6607 4.96017 39.28C5.70017 40.18 6.38017 41.08 7.16017 41.9C7.7159 42.5021 8.33252 43.045 9.00017 43.52C12.2042 45.7283 15.9715 46.9772 19.8602 47.12C23.6394 47.2652 27.4182 46.8198 31.0602 45.8C34.3004 45.0707 37.3481 43.6593 40.0002 41.66C42.504 39.4991 44.5976 36.9042 46.1802 34C46.7263 32.9658 47.13 31.8625 47.3802 30.72C47.761 29.0728 47.9688 27.3904 48.0002 25.7C48.1235 22.9063 47.9829 20.1072 47.5802 17.34ZM46.2202 25.68C46.1779 26.9654 46.0173 28.2441 45.7402 29.5C45.5215 30.7148 45.1168 31.8886 44.5402 32.98C43.0471 35.6457 41.0897 38.0231 38.7602 40C36.301 41.7857 33.4823 43.0142 30.5002 43.6C27.0829 44.5362 23.5394 44.9277 20.0002 44.76C16.5438 44.6373 13.1936 43.5344 10.3402 41.58C9.79965 41.1883 9.29741 40.7463 8.84017 40.26C8.10017 39.48 7.44017 38.62 6.84017 37.78C5.65042 36.3067 4.64312 34.695 3.84017 32.98C3.03331 31.3149 2.52558 29.5209 2.34017 27.68C2.24119 26.5088 2.24119 25.3312 2.34017 24.16C2.43762 22.9808 2.62483 21.8107 2.90017 20.66C3.33698 18.7206 4.03679 16.8499 4.98017 15.1C5.95611 13.3187 7.12298 11.6489 8.46017 10.12C9.57305 8.81831 10.8582 7.67445 12.2802 6.72C13.73 5.74143 15.2547 4.87876 16.8402 4.14C17.8503 3.65936 18.9099 3.2905 20.0002 3.04C21.1225 2.78684 22.2574 2.59324 23.4002 2.46C25.0378 2.24516 26.693 2.19825 28.3402 2.32C30.01 2.40297 31.6696 2.63048 33.3002 3C37.8002 4.1 39.5002 5 42.9002 10.4C44.4127 12.5787 45.4673 15.0418 46.0002 17.64C46.3381 20.3062 46.4118 22.9993 46.2202 25.68Z" fill="black"/>
<path d="M26.4207 26.96C26.0007 26.54 25.5407 26.16 25.1407 25.72C24.9524 25.5006 24.8035 25.2502 24.7007 24.98C24.5686 24.4481 24.5686 23.8919 24.7007 23.36C24.8407 22.22 25.1607 21.06 25.2407 20.1C25.3607 17.54 25.1407 14.88 25.2407 12.26C25.2408 11.1755 25.321 10.0926 25.4807 9.01997C25.4952 8.94249 25.4943 8.86292 25.478 8.7858C25.4617 8.70868 25.4303 8.63553 25.3858 8.57052C25.3412 8.50552 25.2842 8.44993 25.2182 8.40694C25.1521 8.36395 25.0782 8.3344 25.0007 8.31997C24.9245 8.30248 24.8454 8.30061 24.7684 8.31446C24.6914 8.32831 24.618 8.35761 24.5526 8.40059C24.4872 8.44357 24.4311 8.49933 24.3879 8.56453C24.3446 8.62973 24.3149 8.70302 24.3007 8.77997C24.0068 9.88988 23.7929 11.0194 23.6607 12.16C23.3607 14.74 23.3407 17.36 23.0007 19.9C23.0007 21 22.4407 22.44 22.4207 23.74C22.4083 24.4257 22.5377 25.1066 22.8007 25.74C23.0318 26.239 23.3501 26.6928 23.7407 27.08C24.2007 27.52 24.7407 27.88 25.2607 28.3L29.8007 32.04C29.9413 32.1567 30.1225 32.2127 30.3044 32.1959C30.4863 32.179 30.654 32.0905 30.7707 31.95C30.8874 31.8094 30.9435 31.6282 30.9266 31.4463C30.9098 31.2644 30.8213 31.0967 30.6807 30.98L26.4207 26.96Z" fill="black"/>
<path d="M24.78 38.5399V36.5399C24.78 35.9199 24.68 35.2999 24.62 34.6999C24.6351 34.6115 24.6301 34.5208 24.6055 34.4345C24.5808 34.3483 24.5372 34.2686 24.4777 34.2014C24.4182 34.1343 24.3444 34.0813 24.2617 34.0464C24.1791 34.0116 24.0896 33.9957 24 33.9999C23.839 33.9999 23.6842 34.0624 23.5685 34.1744C23.4528 34.2864 23.3852 34.439 23.38 34.5999C23.38 35.1999 23.18 35.7999 23.1 36.4199C23.02 37.0399 23.1 37.2399 23.1 37.6599C23.1189 38.7324 23.2598 39.7993 23.52 40.8399C23.5755 40.9982 23.686 41.1313 23.8313 41.215C23.9767 41.2987 24.1473 41.3274 24.312 41.2959C24.4768 41.2644 24.6247 41.1748 24.729 41.0434C24.8332 40.912 24.8868 40.7475 24.88 40.5799C24.8064 39.9025 24.773 39.2213 24.78 38.5399Z" fill="black"/>
<path d="M42.4609 22.66C41.2809 22.66 40.1209 22.48 38.9609 22.54C38.1519 22.5903 37.3489 22.7107 36.5609 22.9C36.4819 22.9074 36.4052 22.9305 36.3353 22.9678C36.2653 23.0051 36.2034 23.056 36.1532 23.1173C36.103 23.1787 36.0654 23.2494 36.0427 23.3254C36.02 23.4014 36.0126 23.4811 36.0209 23.56C36.0284 23.6389 36.0514 23.7156 36.0887 23.7855C36.126 23.8555 36.1769 23.9174 36.2382 23.9676C36.2996 24.0178 36.3703 24.0554 36.4463 24.0781C36.5223 24.1008 36.602 24.1082 36.6809 24.1C37.2609 24.1 37.8209 24.1 38.4009 24.22H39.5609C40.5506 24.1964 41.5385 24.123 42.5209 24C42.7012 24 42.8742 23.9283 43.0017 23.8008C43.1292 23.6733 43.2009 23.5003 43.2009 23.32C43.2009 23.1396 43.1292 22.9666 43.0017 22.8391C42.8742 22.7116 42.7012 22.64 42.5209 22.64L42.4609 22.66Z" fill="black"/>
<path d="M13.281 23.18C12.4344 23.0397 11.5789 22.9595 10.721 22.94H7.84096C6.92229 23.01 5.99963 23.01 5.08096 22.94C5.00345 22.9224 4.9232 22.9203 4.84489 22.9339C4.76657 22.9476 4.69174 22.9766 4.62475 23.0194C4.55776 23.0622 4.49995 23.1179 4.45466 23.1832C4.40938 23.2486 4.37753 23.3223 4.36096 23.4C4.33067 23.5561 4.36153 23.7179 4.44714 23.8519C4.53275 23.9859 4.66658 24.0819 4.82096 24.12C5.66038 24.3832 6.52512 24.5575 7.40096 24.64C8.37337 24.7 9.34855 24.7 10.321 24.64C11.281 24.64 12.201 24.52 13.141 24.64C13.2404 24.6635 13.3437 24.665 13.4438 24.6444C13.5438 24.6237 13.6381 24.5814 13.7201 24.5204C13.802 24.4594 13.8696 24.3812 13.9182 24.2913C13.9667 24.2014 13.995 24.102 14.001 24C14.0231 23.8963 14.0208 23.7889 13.994 23.6863C13.9673 23.5837 13.9169 23.4888 13.847 23.4091C13.777 23.3294 13.6894 23.2672 13.5911 23.2275C13.4929 23.1877 13.3866 23.1714 13.281 23.18Z" fill="black"/>
<path d="M10.7204 15.76C11.0115 16.0397 11.326 16.2939 11.6604 16.52C11.961 16.6972 12.2425 16.9049 12.5004 17.14C12.6113 17.2828 12.7732 17.3772 12.9522 17.4033C13.1312 17.4294 13.3133 17.3852 13.4604 17.28C13.6046 17.1655 13.6995 17.0002 13.7255 16.8179C13.7516 16.6356 13.7068 16.4503 13.6004 16.3C13.316 15.8499 12.973 15.4396 12.5804 15.08C12.3175 14.8512 12.0365 14.6438 11.7404 14.46C11.4404 14.28 11.1404 14.18 10.8604 14C10.7463 13.886 10.5917 13.8219 10.4304 13.8219C10.2691 13.8219 10.1144 13.886 10.0004 14C9.88633 14.1141 9.82227 14.2687 9.82227 14.43C9.82227 14.5913 9.88633 14.746 10.0004 14.86C10.2055 15.1864 10.447 15.4883 10.7204 15.76Z" fill="black"/>
<path d="M18.341 10C18.2374 9.8076 18.1239 9.62069 18.001 9.44004C17.761 9.16004 17.481 8.94004 17.221 8.68004C17.1776 8.61307 17.1215 8.55529 17.0559 8.50999C16.9902 8.4647 16.9162 8.43279 16.8382 8.41607C16.7602 8.39936 16.6797 8.39817 16.6013 8.41258C16.5228 8.42699 16.4479 8.45671 16.381 8.50004C16.314 8.54338 16.2562 8.59948 16.2109 8.66515C16.1656 8.73082 16.1337 8.80476 16.117 8.88276C16.1003 8.96076 16.0991 9.04129 16.1135 9.11975C16.1279 9.19821 16.1576 9.27307 16.201 9.34004C16.3751 9.80107 16.5823 10.2489 16.821 10.68C17.181 11.28 17.681 11.76 18.061 12.36C18.103 12.4388 18.1601 12.5086 18.2291 12.5653C18.2981 12.622 18.3775 12.6646 18.463 12.6906C18.5484 12.7166 18.6381 12.7255 18.727 12.7168C18.8159 12.7082 18.9022 12.6821 18.981 12.64C19.0617 12.6001 19.1335 12.5441 19.1917 12.4754C19.25 12.4067 19.2936 12.3268 19.3199 12.2406C19.3461 12.1544 19.3544 12.0637 19.3443 11.9742C19.3341 11.8847 19.3058 11.7982 19.261 11.72C19.0097 11.1187 18.7017 10.5428 18.341 10Z" fill="black"/>
<path d="M31.4797 10.22C31.6597 9.96002 31.8797 9.76002 32.0597 9.50002C32.1858 9.31102 32.293 9.11005 32.3797 8.90002C32.5125 8.51323 32.5866 8.10876 32.5997 7.70002C32.6209 7.62386 32.6269 7.54424 32.6173 7.46576C32.6077 7.38727 32.5826 7.31147 32.5436 7.2427C32.5045 7.17393 32.4523 7.11355 32.3899 7.06504C32.3274 7.01653 32.256 6.98084 32.1797 6.96002C32.1036 6.93586 32.0232 6.92769 31.9438 6.93602C31.8643 6.94436 31.7875 6.96901 31.718 7.00844C31.6485 7.04788 31.5879 7.10124 31.5401 7.16518C31.4922 7.22912 31.458 7.30226 31.4397 7.38002C31.2997 7.58002 31.1197 7.72002 30.9797 7.92002C30.8922 8.05562 30.8121 8.19582 30.7397 8.34002C30.5437 8.76151 30.3767 9.19585 30.2397 9.64002C30.164 9.80199 30.1552 9.98723 30.2151 10.1557C30.275 10.3241 30.3988 10.4622 30.5597 10.54C30.7246 10.6166 30.9128 10.626 31.0845 10.5663C31.2562 10.5066 31.3979 10.3824 31.4797 10.22Z" fill="black"/>
<path d="M37.0211 14.32C37.4405 13.9609 37.841 13.5804 38.2211 13.18C38.2963 13.1285 38.36 13.062 38.4082 12.9846C38.4565 12.9073 38.4882 12.8208 38.5013 12.7306C38.5145 12.6404 38.5088 12.5485 38.4847 12.4606C38.4605 12.3727 38.4185 12.2908 38.3611 12.22C38.2623 12.0642 38.1061 11.9538 37.9263 11.9126C37.7466 11.8714 37.5578 11.9028 37.4011 12C37.0811 12.18 36.7811 12.3 36.4811 12.5C36.2745 12.6359 36.0804 12.7898 35.9011 12.96C35.6128 13.2738 35.3765 13.6316 35.2011 14.02C35.1436 14.0759 35.098 14.1427 35.0668 14.2166C35.0356 14.2905 35.0195 14.3698 35.0195 14.45C35.0195 14.5301 35.0356 14.6095 35.0668 14.6834C35.098 14.7572 35.1436 14.8241 35.2011 14.88C35.3132 14.9899 35.464 15.0515 35.6211 15.0515C35.7781 15.0515 35.9289 14.9899 36.0411 14.88C36.4211 14.66 36.7411 14.54 37.0211 14.32Z" fill="black"/>
<path d="M38.5795 29.22C38.4304 29.1296 38.2686 29.0622 38.0995 29.02C37.8336 28.9904 37.5653 28.9904 37.2995 29.02C37.1506 28.9664 36.9869 28.9718 36.8419 29.035C36.6969 29.0983 36.5816 29.2145 36.5195 29.36C36.472 29.5115 36.4826 29.6752 36.5491 29.8193C36.6157 29.9635 36.7334 30.0778 36.8795 30.14C37.1395 30.32 37.3195 30.56 37.5995 30.72C37.8795 30.88 38.4395 31.04 38.8195 31.24C38.8917 31.2925 38.9735 31.3303 39.0604 31.3512C39.1472 31.3721 39.2373 31.3756 39.3255 31.3617C39.4137 31.3478 39.4983 31.3166 39.5745 31.27C39.6507 31.2234 39.7169 31.1622 39.7695 31.09C39.822 31.0177 39.8598 30.9359 39.8807 30.849C39.9016 30.7622 39.9051 30.6721 39.8912 30.5839C39.8773 30.4957 39.8461 30.4111 39.7995 30.3349C39.7529 30.2587 39.6917 30.1925 39.6195 30.14C39.3205 29.7833 38.9699 29.4732 38.5795 29.22Z" fill="black"/>
<path d="M33.5211 35.38C33.3984 35.1934 33.2578 35.0192 33.1011 34.86C32.8811 34.6 32.6211 34.4 32.3811 34.16C32.3435 34.09 32.2922 34.0282 32.2305 33.9782C32.1687 33.9281 32.0976 33.8908 32.0213 33.8685C31.945 33.8462 31.8651 33.8392 31.7861 33.8481C31.7071 33.8569 31.6306 33.8814 31.5611 33.92C31.427 34.0031 31.3296 34.1341 31.2888 34.2865C31.2479 34.4388 31.2666 34.601 31.3411 34.74C31.4913 35.2201 31.6924 35.6828 31.9411 36.12C32.0845 36.3567 32.2521 36.5779 32.4411 36.78C32.7011 37.1 32.9811 37.36 33.2211 37.68C33.3132 37.8371 33.4629 37.9521 33.6384 38.0007C33.8139 38.0492 34.0014 38.0274 34.1611 37.94C34.2392 37.8946 34.3075 37.8341 34.3619 37.7621C34.4164 37.69 34.4559 37.6078 34.4783 37.5203C34.5006 37.4328 34.5053 37.3418 34.492 37.2524C34.4788 37.1631 34.4479 37.0773 34.4011 37C34.1633 36.4317 33.8684 35.8889 33.5211 35.38Z" fill="black"/>
<path d="M16.0995 35.56C15.8712 35.7154 15.6509 35.8823 15.4395 36.06C15.2988 36.1809 15.1774 36.3225 15.0795 36.48C14.8153 36.8682 14.5813 37.2761 14.3795 37.7C14.2834 37.8534 14.2485 38.0373 14.2819 38.2152C14.3152 38.3931 14.4144 38.5519 14.5595 38.66C14.6339 38.7127 14.7181 38.7498 14.8071 38.7693C14.8961 38.7887 14.9881 38.7901 15.0777 38.7733C15.1672 38.7565 15.2525 38.7219 15.3284 38.6715C15.4043 38.6211 15.4693 38.556 15.5195 38.48C15.9 38.1129 16.2605 37.7257 16.5995 37.32C16.7894 36.9977 16.9436 36.6557 17.0595 36.3C17.1577 36.1727 17.2012 36.0117 17.1806 35.8522C17.16 35.6928 17.0768 35.5482 16.9495 35.45C16.8222 35.3519 16.6612 35.3084 16.5018 35.329C16.3424 35.3496 16.1977 35.4327 16.0995 35.56Z" fill="black"/>
<path d="M11.0011 29.8C10.5211 29.8 10.0611 29.8 9.60111 29.96C9.28629 30.0742 8.98457 30.2217 8.70111 30.4C8.62363 30.4144 8.54975 30.444 8.4837 30.487C8.41764 30.53 8.3607 30.5856 8.31613 30.6506C8.22611 30.7819 8.19193 30.9435 8.22111 31.1C8.25028 31.2565 8.34042 31.3949 8.4717 31.485C8.5367 31.5295 8.60984 31.5609 8.68695 31.5772C8.76406 31.5935 8.84363 31.5944 8.92111 31.58C9.26045 31.6098 9.60176 31.6098 9.94111 31.58C10.4327 31.4705 10.9094 31.3026 11.3611 31.08C11.5383 31.0288 11.6881 30.9097 11.7779 30.7487C11.8678 30.5877 11.8905 30.3977 11.8411 30.22C11.782 30.0554 11.6617 29.9199 11.5053 29.8417C11.3488 29.7635 11.1683 29.7485 11.0011 29.8Z" fill="black"/>
</g>
<defs>
<clipPath id="clip0_1780_41707">
<rect width="48" height="48" fill="white"/>
</clipPath>
</defs>
</svg>
