<svg width="48" height="48" viewBox="0 0 48 48" fill="none" xmlns="http://www.w3.org/2000/svg">
<g clip-path="url(#clip0_1780_41754)">
<path fill-rule="evenodd" clip-rule="evenodd" d="M48 42.38C47.72 40.38 45.16 38.22 43.9 37.34L42.56 36.4C41.2 35.38 41.7 34.92 40.9 34.92C40.9 32.92 41.16 31.06 41.16 29.32V26.92C41.16 26.14 41 25.32 40.88 24.52C40.6 22.78 40.22 21.02 39.74 18.98C39.7103 18.776 39.601 18.5921 39.4361 18.4685C39.2712 18.3448 39.0641 18.2914 38.86 18.32C38.7596 18.3346 38.6632 18.3691 38.5764 18.4215C38.4896 18.4739 38.4141 18.5431 38.3545 18.6251C38.2949 18.7071 38.2522 18.8002 38.2291 18.899C38.206 18.9977 38.2029 19.1001 38.22 19.2C38.36 21.32 38.36 23.2 38.44 24.9C38.44 26.18 38.44 27.42 38.66 28.68C38.88 30.68 39.26 32.68 39.62 34.96H35.76C33.36 34.86 30.94 34.6 28.54 34.44C26.9 34.34 25.28 34.28 23.66 34.24C21.66 34.24 19.76 34.24 17.82 34.46C14.92 34.68 12.06 35.06 9.15998 35.42C8.97963 35.42 8.80667 35.4917 8.67915 35.6192C8.55163 35.7467 8.47998 35.9197 8.47998 36.1C8.47998 36.2804 8.55163 36.4533 8.67915 36.5808C8.80667 36.7084 8.97963 36.78 9.15998 36.78H14.92C17.78 36.78 20.62 36.78 23.5 36.94C25.22 36.94 26.94 37.04 28.68 37.08C30.42 37.12 32.16 37.08 33.9 37.08C35.9 37.08 38.02 36.92 40.04 36.72L41.54 37.9L42.88 38.94C43.6052 39.4641 44.2753 40.0605 44.88 40.72L36.62 40H28.46C24.46 40 20.32 40.24 16.26 40.24C12.9 40.36 9.49998 40.82 6.11998 40.94H2.51998C2.8868 40.0257 3.38541 39.17 3.99998 38.4L5.35998 37.18L7.35998 35.86C7.51911 35.7751 7.63801 35.6305 7.69052 35.458C7.74303 35.2855 7.72485 35.0991 7.63998 34.94C7.56525 34.8222 7.45607 34.7302 7.32727 34.6765C7.19847 34.6228 7.05627 34.6101 6.91998 34.64L7.19998 30.96C7.33998 29.14 7.55998 27.34 7.69998 25.5C7.83998 23.66 7.99998 21.86 7.99998 20C7.77998 15.32 7.59998 17.52 9.99998 17.12L14.74 16.26C14.9257 16.2026 15.0832 16.0778 15.1818 15.9103C15.2803 15.7427 15.3127 15.5444 15.2727 15.3542C15.2326 15.164 15.123 14.9956 14.9653 14.8819C14.8076 14.7683 14.6131 14.7177 14.42 14.74L9.79998 15.14C9.43998 15.14 7.79998 15 6.99998 15.14C6.79209 15.1638 6.59111 15.2292 6.409 15.3323C6.2269 15.4354 6.06739 15.574 5.93998 15.74C5.72017 16.113 5.58371 16.5292 5.53998 16.96C5.39998 17.92 5.53998 19.42 5.53998 19.96C5.53998 21.8 5.33998 23.64 5.31998 25.46C5.29998 27.28 5.31998 29.14 5.45998 30.98L5.63998 35.44L4.65998 36.04L3.03998 37.36C1.71053 38.6443 0.720897 40.2387 0.159982 42C-0.0934852 42.7131 -0.107604 43.4893 0.119765 44.2111C0.347134 44.9329 0.803597 45.561 1.41998 46C2.08979 46.4425 2.84689 46.7358 3.63998 46.86C4.66012 47.002 5.69062 47.0555 6.71998 47.02L13.28 47.3C19 47.3 24.72 47.64 30.42 47.66C32.9 47.66 35.38 47.66 37.86 47.4L42 46.76L44.56 46.1L46.26 45.38C46.8515 45.1574 47.3479 44.7371 47.665 44.1903C47.9821 43.6436 48.1005 43.004 48 42.38ZM45.36 43.6L43.96 44.12L41.62 44.64L37.78 45H32.92C26.38 45 19.84 44.6 13.3 44.66H6.69998C5.78172 44.7401 4.85824 44.7401 3.93998 44.66C3.44198 44.5971 2.96026 44.4411 2.51998 44.2C2.21176 43.9809 1.98541 43.6652 1.87674 43.303C1.76807 42.9408 1.78328 42.5526 1.91998 42.2C1.91998 42.2 1.91998 42.1 1.91998 42.06C3.29852 42.2604 4.68752 42.3806 6.07998 42.42C9.43998 42.54 12.86 42.42 16.2 42.42H24.4C28.4 42.32 32.54 42.04 36.6 41.9H45.74H45.86C45.9733 42.0367 46.0505 42.1997 46.0844 42.3739C46.1184 42.5482 46.108 42.7283 46.0542 42.8975C46.0005 43.0667 45.9051 43.2197 45.7768 43.3425C45.6485 43.4652 45.4914 43.5538 45.32 43.6H45.36Z" fill="black"/>
<path fill-rule="evenodd" clip-rule="evenodd" d="M18.8197 14C19.5157 14.6451 20.2726 15.2211 21.0797 15.72C21.1569 15.7892 21.247 15.8423 21.3449 15.8763C21.4428 15.9102 21.5465 15.9243 21.6499 15.9177C21.7533 15.9111 21.8544 15.884 21.9472 15.8379C22.04 15.7919 22.1227 15.7278 22.1905 15.6494C22.2583 15.571 22.3097 15.4799 22.3419 15.3814C22.3741 15.2829 22.3863 15.1789 22.3778 15.0757C22.3694 14.9724 22.3404 14.8718 22.2927 14.7799C22.2449 14.6879 22.1793 14.6064 22.0997 14.54C21.5602 14.0595 21.0587 13.538 20.5997 12.98C20.407 12.7371 20.2827 12.4471 20.2397 12.14L20.5797 11.62C20.9412 11.068 21.4277 10.6089 21.9997 10.28C22.6628 9.88596 23.3856 9.60226 24.1397 9.44003L24.9997 9.30003C24.9997 9.30003 24.8397 9.50003 24.7797 9.62003C23.8698 11.1645 23.1957 12.8363 22.7797 14.58C22.598 15.2518 22.5946 15.9593 22.77 16.6328C22.9454 17.3062 23.2934 17.9223 23.7797 18.42L25.3197 20C25.8286 20.5211 26.4701 20.8934 27.175 21.0767C27.8799 21.26 28.6215 21.2473 29.3197 21.04C31.0777 20.571 32.756 19.8431 34.2997 18.88C34.4597 18.88 34.5997 18.66 34.7597 18.58L34.5797 19.6C34.4175 20.3542 34.1338 21.0769 33.7397 21.74C33.4035 22.3412 32.9308 22.8549 32.3597 23.24L31.8397 23.58C31.5326 23.537 31.2426 23.4127 30.9997 23.22C30.4465 22.7558 29.9253 22.2547 29.4397 21.72C29.3033 21.5678 29.1125 21.4753 28.9085 21.4623C28.7045 21.4493 28.5035 21.517 28.3489 21.6506C28.1942 21.7843 28.0982 21.9734 28.0816 22.1771C28.0649 22.3808 28.1289 22.583 28.2597 22.74C28.7587 23.5472 29.3347 24.3041 29.9797 25C30.3725 25.379 30.8537 25.654 31.3797 25.8C31.7488 25.8801 32.1307 25.8801 32.4997 25.8C32.952 25.7085 33.3851 25.5393 33.7797 25.3C34.7167 24.7428 35.4842 23.9407 35.9997 22.98C36.3474 22.0262 36.5103 21.0148 36.4797 20L36.3197 18C36.3099 17.8802 36.3099 17.7598 36.3197 17.64C37.6396 16.7162 38.836 15.6273 39.8797 14.4C41.4947 12.4216 42.588 10.07 43.0597 7.56003C43.2113 6.45855 43.2113 5.34151 43.0597 4.24003C43.0294 3.2385 42.6551 2.27796 41.9997 1.52003C41.2928 0.909269 40.4106 0.53818 39.4797 0.460031C38.3832 0.381956 37.2811 0.442433 36.1997 0.640031C33.7178 1.1912 31.4098 2.34519 29.4797 4.00003C28.2446 5.07172 27.1493 6.29468 26.2197 7.64003H25.9997L23.9997 7.40003C22.9304 7.39316 21.8702 7.59704 20.8797 8.00003C19.8745 8.50979 19.0403 9.30229 18.4797 10.28C18.2517 10.6637 18.0894 11.0828 17.9997 11.52C17.9194 11.8823 17.9194 12.2578 17.9997 12.62C18.1618 13.1376 18.4426 13.6102 18.8197 14ZM30.8197 5.68003C32.5192 4.37301 34.5088 3.49488 36.6197 3.12003C37.3195 2.99926 38.0301 2.95233 38.7397 2.98003C39.2309 2.93907 39.7221 3.05836 40.1397 3.32003C40.4199 3.75262 40.5467 4.26678 40.4997 4.78003C40.5476 5.50815 40.5141 6.23935 40.3997 6.96003C40.1041 9.07769 39.2786 11.0864 37.9997 12.8C36.6713 14.5525 35.0304 16.0442 33.1597 17.2C31.8183 18.1218 30.3495 18.8427 28.7997 19.34C28.398 19.4865 27.9648 19.5247 27.5435 19.451C27.1223 19.3773 26.7279 19.1942 26.3997 18.92L24.7797 17.38C24.4918 17.0355 24.2996 16.6212 24.2224 16.1789C24.1452 15.7366 24.1856 15.2818 24.3397 14.86C24.8413 13.3109 25.5764 11.8473 26.5197 10.52C27.6757 8.67324 29.1522 7.04773 30.8797 5.72003L30.8197 5.68003Z" fill="black"/>
<path fill-rule="evenodd" clip-rule="evenodd" d="M16.3201 21.76C16.5093 21.8976 16.7184 22.0055 16.9401 22.08L16.7801 22.3C15.9937 23.251 15.3223 24.2915 14.7801 25.4C14.5027 26.1067 14.4469 26.881 14.6201 27.62C14.6868 27.8255 14.8037 28.0111 14.9601 28.16C15.1111 28.314 15.296 28.4305 15.5001 28.5C16.318 28.7611 17.2007 28.7328 18.0001 28.42C19.1026 27.8781 20.1366 27.2067 21.0801 26.42L21.3001 26.26C21.3784 26.4864 21.486 26.7016 21.6201 26.9C21.8277 27.3192 22.1886 27.6423 22.628 27.8024C23.0674 27.9625 23.5516 27.9474 23.9801 27.76C24.8277 27.3174 25.4723 26.5654 25.7801 25.66C25.9978 25.0172 26.0795 24.3361 26.0201 23.66C25.9483 22.7929 25.8214 21.9311 25.6401 21.08C25.6283 20.9785 25.5956 20.8805 25.544 20.7922C25.4924 20.704 25.423 20.6274 25.3404 20.5672C25.2577 20.5071 25.1634 20.4648 25.0636 20.4429C24.9637 20.421 24.8604 20.42 24.7601 20.44C24.66 20.4523 24.5633 20.4845 24.4757 20.5345C24.388 20.5846 24.3113 20.6516 24.2498 20.7317C24.1884 20.8117 24.1435 20.9032 24.1178 21.0008C24.0921 21.0984 24.0861 21.2001 24.1001 21.3C24.212 22.0886 24.2722 22.8836 24.2801 23.68C24.2834 24.1247 24.202 24.5659 24.0401 24.98C24.0401 25.16 23.6001 25.32 23.4001 25.5L23.3001 24.18C23.207 23.854 22.9884 23.5782 22.6922 23.4132C22.3959 23.2482 22.0463 23.2075 21.7201 23.3L21.1601 23.5L19.7001 24.34C19.2201 24.64 18.5201 25.14 17.7001 25.54H17.6001C17.9674 24.8501 18.3747 24.1823 18.8201 23.54L19.6401 22.04C19.7212 21.8657 19.7881 21.6851 19.8401 21.5C19.8495 21.4404 19.8495 21.3797 19.8401 21.32C19.8814 21.1657 19.8891 21.0044 19.8628 20.8469C19.8366 20.6894 19.7769 20.5393 19.6879 20.4067C19.5989 20.2741 19.4825 20.1621 19.3467 20.0781C19.2108 19.9942 19.0585 19.9403 18.9001 19.92L17.4601 20C17.4601 20 17.4601 19.9 17.3401 20C17.2201 20.1 17.3401 20.2 17.3401 20.18C17.3401 20.16 17.8801 19.52 18.1801 19.4C18.5987 19.2248 19.0465 19.1298 19.5001 19.12C20.2961 19.1215 21.0911 19.1749 21.8801 19.28C21.9696 19.2942 22.0609 19.2903 22.1488 19.2687C22.2367 19.2471 22.3194 19.2081 22.3921 19.1541C22.4648 19.1 22.5259 19.032 22.5719 18.9541C22.6179 18.8761 22.6479 18.7898 22.6601 18.7C22.6839 18.599 22.6849 18.494 22.6631 18.3926C22.6413 18.2912 22.5972 18.1958 22.5341 18.1135C22.4709 18.0312 22.3902 17.964 22.2979 17.9167C22.2055 17.8694 22.1038 17.8432 22.0001 17.84C21.1545 17.6616 20.2999 17.5281 19.4401 17.44C18.7656 17.386 18.0868 17.4606 17.4401 17.66C16.5839 17.9877 15.874 18.6124 15.4401 19.42C15.2602 19.8487 15.2512 20.3299 15.4148 20.765C15.5784 21.2002 15.9024 21.5562 16.3201 21.76Z" fill="black"/>
</g>
<defs>
<clipPath id="clip0_1780_41754">
<rect width="48" height="48" fill="white"/>
</clipPath>
</defs>
</svg>
