<svg width="48" height="48" viewBox="0 0 48 48" fill="none" xmlns="http://www.w3.org/2000/svg">
<path fill-rule="evenodd" clip-rule="evenodd" d="M48 41.953C47.72 39.953 45.16 37.793 43.9 36.913L42.56 35.973C41.2 34.953 41.7 34.493 40.9 34.493C40.9 32.493 41.16 30.633 41.16 28.893V26.493C41.16 25.713 41 24.893 40.88 24.093C40.6 22.353 40.22 20.593 39.74 18.553C39.7103 18.3491 39.601 18.1652 39.4361 18.0415C39.2712 17.9178 39.0641 17.8644 38.86 17.893C38.7596 17.9076 38.6632 17.9421 38.5764 17.9945C38.4896 18.0469 38.4141 18.1161 38.3545 18.1981C38.2949 18.2801 38.2522 18.3732 38.2291 18.472C38.206 18.5707 38.2029 18.6731 38.22 18.773C38.36 20.893 38.36 22.773 38.44 24.473C38.44 25.753 38.44 26.993 38.66 28.253C38.88 30.253 39.26 32.253 39.62 34.533H35.76C33.36 34.433 30.94 34.173 28.54 34.013C26.9 33.913 25.28 33.853 23.66 33.813C21.66 33.813 19.76 33.813 17.82 34.033C14.92 34.253 12.06 34.633 9.15998 34.993C8.97963 34.993 8.80667 35.0647 8.67915 35.1922C8.55163 35.3197 8.47998 35.4927 8.47998 35.673C8.47998 35.8534 8.55163 36.0263 8.67915 36.1539C8.80667 36.2814 8.97963 36.353 9.15998 36.353H14.92C17.78 36.353 20.62 36.353 23.5 36.513C25.22 36.513 26.94 36.613 28.68 36.653C30.42 36.693 32.16 36.653 33.9 36.653C35.9 36.653 38.02 36.493 40.04 36.293L41.54 37.473L42.88 38.513C43.6052 39.0371 44.2753 39.6335 44.88 40.293L36.62 39.573H28.46C24.46 39.573 20.32 39.813 16.26 39.813C12.9 39.933 9.49998 40.393 6.11998 40.513H2.51998C2.8868 39.5987 3.38541 38.743 3.99998 37.973L5.35998 36.753L7.35998 35.433C7.51911 35.3482 7.63801 35.2035 7.69052 35.031C7.74303 34.8585 7.72485 34.6722 7.63998 34.513C7.56525 34.3952 7.45607 34.3032 7.32727 34.2495C7.19847 34.1959 7.05627 34.1831 6.91998 34.213L7.19998 30.533C7.33998 28.713 7.55998 26.913 7.69998 25.073C7.83998 23.233 7.99998 21.433 7.99998 19.573C7.77998 14.893 7.59998 17.093 9.99998 16.693L14.74 15.833C14.9257 15.7756 15.0832 15.6508 15.1818 15.4833C15.2803 15.3157 15.3127 15.1174 15.2727 14.9272C15.2326 14.737 15.123 14.5686 14.9653 14.455C14.8076 14.3414 14.6131 14.2907 14.42 14.313L9.79998 14.713C9.43998 14.713 7.79998 14.573 6.99998 14.713C6.79209 14.7368 6.59111 14.8022 6.409 14.9053C6.2269 15.0084 6.06739 15.147 5.93998 15.313C5.72017 15.6861 5.58371 16.1023 5.53998 16.533C5.39998 17.493 5.53998 18.993 5.53998 19.533C5.53998 21.373 5.33998 23.213 5.31998 25.033C5.29998 26.853 5.31998 28.713 5.45998 30.553L5.63998 35.013L4.65998 35.613L3.03998 36.933C1.71053 38.2173 0.720897 39.8117 0.159982 41.573C-0.0934852 42.2861 -0.107604 43.0623 0.119765 43.7841C0.347134 44.5059 0.803597 45.134 1.41998 45.573C2.08979 46.0155 2.84689 46.3088 3.63998 46.433C4.66012 46.575 5.69062 46.6285 6.71998 46.593L13.28 46.873C19 46.873 24.72 47.213 30.42 47.233C32.9 47.233 35.38 47.233 37.86 46.973L42 46.333L44.56 45.673L46.26 44.953C46.8515 44.7304 47.3479 44.3101 47.665 43.7633C47.9821 43.2166 48.1005 42.577 48 41.953ZM45.36 43.173L43.96 43.693L41.62 44.213L37.78 44.573H32.92C26.38 44.573 19.84 44.173 13.3 44.233H6.69998C5.78172 44.3131 4.85824 44.3131 3.93998 44.233C3.44198 44.1701 2.96026 44.0141 2.51998 43.773C2.21176 43.5539 1.98541 43.2382 1.87674 42.876C1.76807 42.5138 1.78328 42.1256 1.91998 41.773C1.91998 41.773 1.91998 41.673 1.91998 41.633C3.29852 41.8334 4.68752 41.9536 6.07998 41.993C9.43998 42.113 12.86 41.993 16.2 41.993H24.4C28.4 41.893 32.54 41.613 36.6 41.473H45.74H45.86C45.9733 41.6097 46.0505 41.7727 46.0844 41.947C46.1184 42.1212 46.108 42.3013 46.0542 42.4705C46.0005 42.6397 45.9051 42.7927 45.7768 42.9155C45.6485 43.0382 45.4914 43.1268 45.32 43.173H45.36Z" fill="black"/>
<path fill-rule="evenodd" clip-rule="evenodd" d="M18.8197 13.573C19.5157 14.2181 20.2726 14.7941 21.0797 15.293C21.1569 15.3622 21.247 15.4153 21.3449 15.4493C21.4428 15.4832 21.5465 15.4973 21.6499 15.4907C21.7533 15.4841 21.8544 15.457 21.9472 15.4109C22.04 15.3649 22.1227 15.3008 22.1905 15.2224C22.2583 15.144 22.3097 15.0529 22.3419 14.9544C22.3741 14.8559 22.3863 14.7519 22.3778 14.6486C22.3694 14.5454 22.3404 14.4448 22.2927 14.3529C22.2449 14.2609 22.1793 14.1794 22.0997 14.113C21.5602 13.6325 21.0587 13.111 20.5997 12.553C20.407 12.3101 20.2827 12.0201 20.2397 11.713L20.5797 11.193C20.9412 10.641 21.4277 10.1819 21.9997 9.85303C22.6628 9.45895 23.3856 9.17526 24.1397 9.01303L24.9997 8.87303C24.9997 8.87303 24.8397 9.07303 24.7797 9.19303C23.8698 10.7375 23.1957 12.4093 22.7797 14.153C22.598 14.8248 22.5946 15.5323 22.77 16.2058C22.9454 16.8792 23.2934 17.4953 23.7797 17.993L25.3197 19.573C25.8286 20.0941 26.4701 20.4664 27.175 20.6497C27.8799 20.8329 28.6215 20.8203 29.3197 20.613C31.0777 20.144 32.756 19.4161 34.2997 18.453C34.4597 18.453 34.5997 18.233 34.7597 18.153L34.5797 19.173C34.4175 19.9272 34.1338 20.6499 33.7397 21.313C33.4035 21.9141 32.9308 22.4279 32.3597 22.813L31.8397 23.153C31.5326 23.11 31.2426 22.9857 30.9997 22.793C30.4465 22.3288 29.9253 21.8277 29.4397 21.293C29.3033 21.1408 29.1125 21.0483 28.9085 21.0353C28.7045 21.0223 28.5035 21.09 28.3489 21.2236C28.1942 21.3573 28.0982 21.5464 28.0816 21.7501C28.0649 21.9538 28.1289 22.156 28.2597 22.313C28.7587 23.1202 29.3347 23.8771 29.9797 24.573C30.3725 24.952 30.8537 25.227 31.3797 25.373C31.7488 25.4531 32.1307 25.4531 32.4997 25.373C32.952 25.2814 33.3851 25.1123 33.7797 24.873C34.7167 24.3157 35.4842 23.5137 35.9997 22.553C36.3474 21.5992 36.5103 20.5878 36.4797 19.573L36.3197 17.573C36.3099 17.4532 36.3099 17.3328 36.3197 17.213C37.6396 16.2892 38.836 15.2003 39.8797 13.973C41.4947 11.9946 42.588 9.64295 43.0597 7.13303C43.2113 6.03155 43.2113 4.91451 43.0597 3.81303C43.0294 2.8115 42.6551 1.85096 41.9997 1.09303C41.2928 0.482267 40.4106 0.111178 39.4797 0.0330288C38.3832 -0.045046 37.2811 0.0154308 36.1997 0.213029C33.7178 0.764198 31.4098 1.91818 29.4797 3.57303C28.2446 4.64472 27.1493 5.86767 26.2197 7.21303H25.9997L23.9997 6.97303C22.9304 6.96615 21.8702 7.17004 20.8797 7.57303C19.8745 8.08279 19.0403 8.87529 18.4797 9.85303C18.2517 10.2367 18.0894 10.6558 17.9997 11.093C17.9194 11.4553 17.9194 11.8308 17.9997 12.193C18.1618 12.7106 18.4426 13.1832 18.8197 13.573ZM30.8197 5.25303C32.5192 3.94601 34.5088 3.06788 36.6197 2.69303C37.3195 2.57225 38.0301 2.52533 38.7397 2.55303C39.2309 2.51207 39.7221 2.63136 40.1397 2.89303C40.4199 3.32561 40.5467 3.83977 40.4997 4.35303C40.5476 5.08115 40.5141 5.81235 40.3997 6.53303C40.1041 8.65069 39.2786 10.6594 37.9997 12.373C36.6713 14.1255 35.0304 15.6172 33.1597 16.773C31.8183 17.6948 30.3495 18.4157 28.7997 18.913C28.398 19.0595 27.9648 19.0977 27.5435 19.024C27.1223 18.9503 26.7279 18.7672 26.3997 18.493L24.7797 16.953C24.4918 16.6085 24.2996 16.1942 24.2224 15.7519C24.1452 15.3096 24.1856 14.8548 24.3397 14.433C24.8413 12.8839 25.5764 11.4203 26.5197 10.093C27.6757 8.24624 29.1522 6.62073 30.8797 5.29303L30.8197 5.25303Z" fill="black"/>
<path fill-rule="evenodd" clip-rule="evenodd" d="M16.3201 21.333C16.5093 21.4706 16.7184 21.5785 16.9401 21.653L16.7801 21.873C15.9937 22.824 15.3223 23.8645 14.7801 24.973C14.5027 25.6797 14.4469 26.4539 14.6201 27.193C14.6868 27.3985 14.8037 27.5841 14.9601 27.733C15.1111 27.887 15.296 28.0034 15.5001 28.073C16.318 28.3341 17.2007 28.3058 18.0001 27.993C19.1026 27.4511 20.1366 26.7797 21.0801 25.993L21.3001 25.833C21.3784 26.0594 21.486 26.2746 21.6201 26.473C21.8277 26.8922 22.1886 27.2153 22.628 27.3754C23.0674 27.5355 23.5516 27.5204 23.9801 27.333C24.8277 26.8904 25.4723 26.1384 25.7801 25.233C25.9978 24.5902 26.0795 23.9091 26.0201 23.233C25.9483 22.3658 25.8214 21.5041 25.6401 20.653C25.6283 20.5515 25.5956 20.4535 25.544 20.3652C25.4924 20.277 25.423 20.2004 25.3404 20.1402C25.2577 20.0801 25.1634 20.0378 25.0636 20.0159C24.9637 19.994 24.8604 19.993 24.7601 20.013C24.66 20.0253 24.5633 20.0575 24.4757 20.1075C24.388 20.1576 24.3113 20.2246 24.2498 20.3047C24.1884 20.3847 24.1435 20.4762 24.1178 20.5738C24.0921 20.6714 24.0861 20.7731 24.1001 20.873C24.212 21.6616 24.2722 22.4566 24.2801 23.253C24.2834 23.6977 24.202 24.1389 24.0401 24.553C24.0401 24.733 23.6001 24.893 23.4001 25.073L23.3001 23.753C23.207 23.427 22.9884 23.1512 22.6922 22.9862C22.3959 22.8212 22.0463 22.7805 21.7201 22.873L21.1601 23.073L19.7001 23.913C19.2201 24.213 18.5201 24.713 17.7001 25.113H17.6001C17.9674 24.4231 18.3747 23.7553 18.8201 23.113L19.6401 21.613C19.7212 21.4387 19.7881 21.2581 19.8401 21.073C19.8495 21.0134 19.8495 20.9527 19.8401 20.893C19.8814 20.7387 19.8891 20.5774 19.8628 20.4199C19.8366 20.2624 19.7769 20.1123 19.6879 19.9797C19.5989 19.8471 19.4825 19.7351 19.3467 19.6511C19.2108 19.5672 19.0585 19.5133 18.9001 19.493L17.4601 19.573C17.4601 19.573 17.4601 19.473 17.3401 19.573C17.2201 19.673 17.3401 19.773 17.3401 19.753C17.3401 19.733 17.8801 19.093 18.1801 18.973C18.5987 18.7978 19.0465 18.7028 19.5001 18.693C20.2961 18.6945 21.0911 18.7479 21.8801 18.853C21.9696 18.8672 22.0609 18.8633 22.1488 18.8417C22.2367 18.8201 22.3194 18.7811 22.3921 18.7271C22.4648 18.673 22.5259 18.605 22.5719 18.5271C22.6179 18.4491 22.6479 18.3627 22.6601 18.273C22.6839 18.172 22.6849 18.067 22.6631 17.9656C22.6413 17.8642 22.5972 17.7688 22.5341 17.6865C22.4709 17.6042 22.3902 17.537 22.2979 17.4897C22.2055 17.4424 22.1038 17.4162 22.0001 17.413C21.1545 17.2346 20.2999 17.1011 19.4401 17.013C18.7656 16.959 18.0868 17.0336 17.4401 17.233C16.5839 17.5607 15.874 18.1854 15.4401 18.993C15.2602 19.4217 15.2512 19.9029 15.4148 20.338C15.5784 20.7732 15.9024 21.1292 16.3201 21.333Z" fill="black"/>
</svg>
